<?xml version="1.0" encoding="utf-8"?>
<!-- Generator: Adobe Illustrator 25.0.0, SVG Export Plug-In . SVG Version: 6.00 Build 0)  -->
<svg version="1.1" id="Layer_1" xmlns="http://www.w3.org/2000/svg" xmlns:xlink="http://www.w3.org/1999/xlink" x="0px" y="0px"
	 viewBox="0 0 999 346" enable-background="new 0 0 999 346" xml:space="preserve">
<g id="MARCA">
	<g id="LC">
		<path fill="#333333" d="M7.2,200V10.8h21.1v170h54V200H7.2z"/>
		<path fill="#333333" d="M118.3,155.4c0,17,6.8,27.3,22.2,27.3c15.1,0,21.9-10.3,21.9-27.3V10.8h19.7v143.5
			c0,28.6-13.2,47.8-42.4,47.8c-28.9,0-42.2-19.2-42.2-47.8V10.8h20.8V155.4z"/>
		<path fill="#333333" d="M224,10.8V200h-21.1V10.8H224z"/>
		<path fill="#333333" d="M327.5,56.2v5.1h-20v-6.2c0-17-6.5-27-21.6-27c-15.1,0-21.6,10-21.6,26.8c0,42.4,63.5,46.5,63.5,99.7
			c0,28.6-13.8,47.3-42.7,47.3s-42.4-18.6-42.4-47.3v-10.8h19.7v11.9c0,17,7,27,22.2,27c15.1,0,22.2-10,22.2-27
			c0-42.2-63.2-46.2-63.2-99.5c0-29.2,13.5-47.3,41.9-47.3C314,8.9,327.5,27.5,327.5,56.2z"/>
		<path fill="#333333" d="M471.5,56.5v17h-20V55.4c0-17-6.8-27.3-22.2-27.3c-15.1,0-22.2,10.3-22.2,27.3v100c0,17,7,27.3,22.2,27.3
			c15.4,0,22.2-10.3,22.2-27.3v-24.6h20v23.5c0,28.6-13.5,47.6-42.7,47.6c-28.9,0-42.4-18.9-42.4-47.6V56.5
			c0-28.6,13.5-47.6,42.4-47.6C458,8.9,471.5,27.8,471.5,56.5z"/>
		<path fill="#333333" d="M512.1,161.8l-7.3,38.1h-19.5l36.2-189.2h30.5L588.3,200h-21.1l-7.3-38.1H512.1z M514.8,143.7h42.2
			L535.6,34.6L514.8,143.7z"/>
		<path fill="#333333" d="M686.7,56.2v5.1h-20v-6.2c0-17-6.5-27-21.6-27s-21.6,10-21.6,26.8c0,42.4,63.5,46.5,63.5,99.7
			c0,28.6-13.8,47.3-42.7,47.3c-28.9,0-42.4-18.6-42.4-47.3v-10.8h19.7v11.9c0,17,7,27,22.2,27s22.2-10,22.2-27
			c0-42.2-63.2-46.2-63.2-99.5c0-29.2,13.5-47.3,41.9-47.3C673.1,8.9,686.7,27.5,686.7,56.2z"/>
		<path fill="#333333" d="M732.6,200V30h-34.9V10.8h90.5V30h-34.9v170H732.6z"/>
		<path fill="#333333" d="M844.7,10.8c29.7,0,42.2,15.1,42.2,43.2v15.4c0,20.8-7.3,33.8-23.5,38.9c17.3,5.1,23.8,19.2,23.8,39.5
			v29.5c0,8.4,0.3,16.2,3.8,22.7h-21.3c-2.4-5.4-3.5-10.3-3.5-23v-29.7c0-21.3-10-28.1-27.6-28.1h-14.9V200h-21.1V10.8H844.7z
			 M839.3,100c16.8,0,26.8-5.4,26.8-25.9V55.9c0-17-6.2-25.9-21.9-25.9h-20.5v70H839.3z"/>
		<path fill="#333333" d="M907.4,56.5c0-28.9,14.3-47.6,43.2-47.6c29.2,0,43.5,18.6,43.5,47.6v97.8c0,28.6-14.3,47.6-43.5,47.6
			c-28.9,0-43.2-18.9-43.2-47.6V56.5z M928.3,155.4c0,17.3,7.3,27.3,22.4,27.3c15.4,0,22.4-10,22.4-27.3v-100c0-17-7-27.3-22.4-27.3
			c-15.1,0-22.4,10.3-22.4,27.3V155.4z"/>
	</g>
	<g id="agente-telecom">
		<path fill="#333333" d="M11.3,312l-3.1,16.3h-8.3l15.5-81h13.1l15.5,81h-9L31.8,312H11.3z M12.4,304.3h18.1l-9.1-46.8L12.4,304.3z
			"/>
		<path fill="#333333" d="M86.7,266.9v6.9h-8.6v-7.4c0-7.3-2.9-11.7-9.5-11.7c-6.5,0-9.5,4.4-9.5,11.7v42.8c0,7.3,3,11.7,9.5,11.7
			c6.6,0,9.5-4.4,9.5-11.7v-16.2h-8.3V285h16.9v23.8c0,12.3-5.8,20.4-18.3,20.4c-12.4,0-18.2-8.1-18.2-20.4v-41.9
			c0-12.3,5.8-20.4,18.2-20.4C80.9,246.5,86.7,254.6,86.7,266.9z"/>
		<path fill="#333333" d="M124.1,283.2v8.1h-19.8v28.8h24.3v8.2H95.3v-81h33.3v8.2h-24.3v27.7H124.1z"/>
		<path fill="#333333" d="M144.9,328.3h-8.1v-81h11.5l18.7,58.6v-58.6h8v81h-9.4l-20.7-65.5V328.3z"/>
		<path fill="#333333" d="M196,328.3v-72.8h-14.9v-8.2h38.8v8.2h-14.9v72.8H196z"/>
		<path fill="#333333" d="M254.8,283.2v8.1H235v28.8h24.3v8.2H226v-81h33.3v8.2H235v27.7H254.8z"/>
		<path fill="#333333" d="M297.2,328.3v-72.8h-14.9v-8.2h38.8v8.2h-14.9v72.8H297.2z"/>
		<path fill="#333333" d="M356,283.2v8.1h-19.8v28.8h24.3v8.2h-33.3v-81h33.3v8.2h-24.3v27.7H356z"/>
		<path fill="#333333" d="M368.9,328.3v-81h9v72.8H401v8.2H368.9z"/>
		<path fill="#333333" d="M436.7,283.2v8.1h-19.8v28.8h24.3v8.2h-33.3v-81h33.3v8.2h-24.3v27.7H436.7z"/>
		<path fill="#333333" d="M449.2,283.8h22.1v8.1h-22.1V283.8z"/>
		<path fill="#333333" d="M516,266.9v7.3h-8.6v-7.8c0-7.3-2.9-11.7-9.5-11.7c-6.5,0-9.5,4.4-9.5,11.7v42.8c0,7.3,3,11.7,9.5,11.7
			c6.6,0,9.5-4.4,9.5-11.7v-10.5h8.6v10.1c0,12.3-5.8,20.4-18.3,20.4c-12.4,0-18.2-8.1-18.2-20.4v-41.9c0-12.3,5.8-20.4,18.2-20.4
			C510.2,246.5,516,254.6,516,266.9z"/>
		<path fill="#333333" d="M523.5,266.9c0-12.4,6.1-20.4,18.5-20.4c12.5,0,18.6,8,18.6,20.4v41.9c0,12.3-6.1,20.4-18.6,20.4
			c-12.4,0-18.5-8.1-18.5-20.4V266.9z M532.4,309.3c0,7.4,3.1,11.7,9.6,11.7c6.6,0,9.6-4.3,9.6-11.7v-42.8c0-7.3-3-11.7-9.6-11.7
			c-6.5,0-9.6,4.4-9.6,11.7V309.3z"/>
		<path fill="#333333" d="M599,328.2h-8.7l-13.4-64.5v64.6h-7.9v-81h12.6L595,312l12.8-64.7h12.6v81h-8.6v-65.2L599,328.2z"/>
		<path fill="#333333" d="M638.3,309.3c0,7.3,2.9,11.7,9.5,11.7c6.5,0,9.4-4.4,9.4-11.7v-61.9h8.4v61.4c0,12.3-5.7,20.5-18.2,20.5
			c-12.4,0-18.1-8.2-18.1-20.5v-61.4h8.9V309.3z"/>
		<path fill="#333333" d="M682.5,328.3h-8.1v-81h11.5l18.7,58.6v-58.6h8v81h-9.4l-20.7-65.5V328.3z"/>
		<path fill="#333333" d="M730.9,247.3v81h-9v-81H730.9z"/>
		<path fill="#333333" d="M775.9,266.9v7.3h-8.6v-7.8c0-7.3-2.9-11.7-9.5-11.7c-6.5,0-9.5,4.4-9.5,11.7v42.8c0,7.3,3,11.7,9.5,11.7
			c6.6,0,9.5-4.4,9.5-11.7v-10.5h8.6v10.1c0,12.3-5.8,20.4-18.3,20.4c-12.4,0-18.2-8.1-18.2-20.4v-41.9c0-12.3,5.8-20.4,18.2-20.4
			C770.1,246.5,775.9,254.6,775.9,266.9z"/>
		<path fill="#333333" d="M793.2,312l-3.1,16.3h-8.3l15.5-81h13.1l15.5,81h-9l-3.1-16.3H793.2z M794.4,304.3h18.1l-9.1-46.8
			L794.4,304.3z"/>
		<path fill="#333333" d="M868.6,266.9v7.3H860v-7.8c0-7.3-2.9-11.7-9.5-11.7c-6.5,0-9.5,4.4-9.5,11.7v42.8c0,7.3,3,11.7,9.5,11.7
			c6.6,0,9.5-4.4,9.5-11.7v-10.5h8.6v10.1c0,11.6-5.2,19.6-16.3,20.3v3.6c5.4,0,8.6,2.2,8.6,5.9c0,4.6-4.1,7.4-11,7.4
			c-6.7,0-10.6-2.7-10.6-7.2v-0.9h5.9v0.8c0,1.9,1.7,3.1,4.7,3.4c3.1,0,5-1.4,5-3.7c0-2.2-2.1-3.5-5.7-3.5h-1V329
			c-10.9-0.8-16-8.8-16-20.3v-41.9c0-12.3,5.8-20.4,18.2-20.4C862.8,246.5,868.6,254.6,868.6,266.9z"/>
		<path fill="#333333" d="M913.2,266.9v41.9c0,12.3-6.1,20.4-18.6,20.4c-12.4,0-18.5-8.1-18.5-20.4v-41.9c0-12.4,6.1-20.4,18.5-20.4
			C907.1,246.5,913.2,254.5,913.2,266.9z M909,235.5c-1.7,4.6-4.6,6.6-8.2,6.6c-4.5,0.1-7.1-3.4-10.6-3.4c-2.1,0-3.6,0.9-4.9,3.5
			l-4.5-3.1c2-4.7,5-6.6,8.6-6.7c4.6,0,7.2,3.5,10.6,3.5c2-0.1,3.4-1,4.6-3.5L909,235.5z M885,266.4v42.8c0,7.4,3.1,11.7,9.6,11.7
			c6.6,0,9.6-4.3,9.6-11.7v-42.8c0-7.3-3-11.7-9.6-11.7C888.1,254.7,885,259.1,885,266.4z"/>
		<path fill="#333333" d="M950.6,283.2v8.1h-19.8v28.8h24.3v8.2h-33.3v-81h33.3v8.2h-24.3v27.7H950.6z"/>
		<path fill="#333333" d="M998.5,266.8v2.2H990v-2.7c0-7.3-2.8-11.6-9.3-11.6s-9.3,4.3-9.3,11.5c0,18.2,27.2,19.9,27.2,42.7
			c0,12.3-5.9,20.3-18.3,20.3c-12.4,0-18.2-8-18.2-20.3v-4.6h8.4v5.1c0,7.3,3,11.6,9.5,11.6s9.5-4.3,9.5-11.6
			c0-18.1-27.1-19.8-27.1-42.6c0-12.5,5.8-20.3,17.9-20.3C992.7,246.5,998.5,254.5,998.5,266.8z"/>
	</g>
	<rect x="3.9" y="209.7" fill="#333333" width="995.5" height="8"/>
</g>
</svg>
